<svg xmlns="http://www.w3.org/2000/svg" xmlns:xlink="http://www.w3.org/1999/xlink" width="700" zoomAndPan="magnify" viewBox="0 0 525 239.999995" height="320" preserveAspectRatio="xMidYMid meet" version="1.0"><defs><g/></defs><g fill="#000000" fill-opacity="1"><g transform="translate(78.116403, 138.16154)"><g><path d="M 2.238281 -52.25 L 2.238281 -38.140625 L 2.6875 -38.140625 C 4.703125 -45.980469 9.628906 -51.800781 18.0625 -51.800781 L 18.0625 -4.925781 C 18.0625 -2.464844 16.121094 -0.449219 13.585938 -0.449219 L 13.585938 0 L 35.753906 0 L 35.753906 -0.449219 C 33.289062 -0.449219 31.273438 -2.464844 31.273438 -4.925781 L 31.273438 -51.800781 C 39.710938 -51.800781 44.636719 -45.980469 46.652344 -38.140625 L 47.097656 -38.140625 L 47.097656 -52.25 Z M 2.238281 -52.25 "/></g></g></g><g fill="#000000" fill-opacity="1"><g transform="translate(127.449939, 138.16154)"><g><path d="M 34.855469 -24.109375 C 33.066406 -25.976562 30.828125 -26.125 30.828125 -26.125 L 31.945312 -26.125 C 39.710938 -26.125 45.980469 -31.945312 45.980469 -39.1875 C 45.980469 -46.425781 39.710938 -52.25 31.945312 -52.25 L 2.238281 -52.25 L 2.238281 -51.800781 C 4.703125 -51.800781 6.71875 -49.785156 6.71875 -47.324219 C 6.71875 -27.765625 6.71875 -24.480469 6.71875 -4.925781 C 6.71875 -2.464844 4.703125 -0.449219 2.238281 -0.449219 L 2.238281 0 L 24.40625 0 L 24.40625 -0.449219 C 21.871094 -0.449219 19.855469 -2.464844 19.855469 -4.925781 L 19.855469 -22.390625 C 19.855469 -23.363281 19.855469 -24.632812 19.855469 -25.902344 L 20.226562 -25.902344 C 25.75 -25.902344 23.363281 3.210938 40.53125 3.136719 C 44.484375 3.058594 48.144531 1.941406 50.007812 0 L 50.007812 -0.449219 C 41.425781 1.195312 40.976562 -17.914062 34.855469 -24.109375 Z M 24.78125 -26.347656 L 19.855469 -26.347656 C 19.855469 -27.617188 19.855469 -28.886719 19.855469 -51.800781 L 24.78125 -51.800781 C 29.183594 -51.800781 32.765625 -46.128906 32.765625 -39.113281 C 32.765625 -32.019531 29.183594 -26.347656 24.78125 -26.347656 Z M 24.78125 -26.347656 "/></g></g></g><g fill="#000000" fill-opacity="1"><g transform="translate(178.947877, 138.16154)"><g><path d="M 26.496094 -52.25 C 13.511719 -52.25 2.984375 -40.53125 2.984375 -26.125 C 2.984375 -11.71875 13.511719 0 26.496094 0 C 39.484375 0 50.007812 -11.71875 50.007812 -26.125 C 50.007812 -40.53125 39.484375 -52.25 26.496094 -52.25 Z M 26.496094 -0.449219 C 20.226562 -0.449219 16.867188 -9.03125 16.867188 -26.125 C 16.867188 -43.21875 20.226562 -51.800781 26.496094 -51.800781 C 32.765625 -51.800781 36.125 -43.21875 36.125 -26.125 C 36.125 -9.03125 32.765625 -0.449219 26.496094 -0.449219 Z M 26.496094 -0.449219 "/></g></g></g><g fill="#000000" fill-opacity="1"><g transform="translate(231.938507, 138.16154)"><g><path d="M 45.53125 -36.648438 C 45.53125 -45.308594 38.886719 -52.25 30.675781 -52.25 L 2.238281 -52.25 L 2.238281 -51.800781 C 4.703125 -51.800781 6.71875 -49.785156 6.71875 -47.324219 L 6.71875 -4.925781 C 6.71875 -2.464844 4.703125 -0.449219 2.238281 -0.449219 L 2.238281 0 L 24.40625 0 L 24.40625 -0.449219 C 21.871094 -0.449219 19.855469 -2.464844 19.855469 -4.925781 L 19.855469 -16.570312 C 26.945312 -17.914062 45.53125 -20.75 45.53125 -36.648438 Z M 23.0625 -51.800781 C 27.765625 -51.800781 31.574219 -45.007812 31.574219 -36.648438 C 31.574219 -27.914062 28.363281 -21.125 19.855469 -17.316406 L 19.855469 -51.800781 Z M 23.0625 -51.800781 "/></g></g></g><g fill="#000000" fill-opacity="1"><g transform="translate(279.704712, 138.16154)"><g><path d="M 24.40625 -51.800781 L 24.40625 -52.25 L 2.238281 -52.25 L 2.238281 -51.800781 C 4.703125 -51.800781 6.71875 -49.785156 6.71875 -47.324219 L 6.71875 -4.925781 C 6.71875 -2.464844 4.703125 -0.449219 2.238281 -0.449219 L 2.238281 0 L 24.40625 0 L 24.40625 -0.449219 C 21.871094 -0.449219 19.855469 -2.464844 19.855469 -4.925781 L 19.855469 -47.324219 C 19.855469 -49.785156 21.871094 -51.800781 24.40625 -51.800781 Z M 24.40625 -51.800781 "/></g></g></g><g fill="#000000" fill-opacity="1"><g transform="translate(306.3493, 138.16154)"><g><path d="M 26.496094 -51.800781 C 29.035156 -51.800781 34.855469 -51.128906 34.855469 -47.546875 C 34.855469 -43.890625 30.453125 -42.992188 30.453125 -37.695312 C 30.453125 -33.289062 34.035156 -29.707031 38.441406 -29.707031 C 42.84375 -29.707031 46.425781 -33.289062 46.425781 -37.695312 C 46.425781 -44.1875 37.097656 -52.25 26.496094 -52.25 C 13.511719 -52.25 2.984375 -40.53125 2.984375 -26.125 C 2.984375 -11.71875 13.511719 0 26.496094 0 C 34.855469 0 42.246094 -4.851562 46.425781 -12.242188 L 46.054688 -12.464844 C 43.066406 -9.03125 39.039062 -6.867188 34.933594 -6.867188 C 25.304688 -6.867188 17.464844 -17.988281 17.464844 -31.648438 C 17.464844 -42.695312 22.167969 -51.800781 26.496094 -51.800781 Z M 26.496094 -51.800781 "/></g></g></g><g fill="#000000" fill-opacity="1"><g transform="translate(355.757464, 138.16154)"><g><path d="M 44.785156 -3.882812 C 37.992188 -23.289062 36.949219 -26.496094 27.992188 -52.25 L 12.316406 -8.957031 C 10.75 -4.777344 6.570312 -1.046875 2.238281 -0.449219 L 2.238281 0 L 20.453125 0 L 20.453125 -0.449219 C 16.273438 -0.449219 12.914062 -3.730469 12.914062 -7.910156 C 12.914062 -8.808594 13.0625 -9.628906 13.285156 -10.375 L 13.808594 -11.71875 L 28.140625 -11.71875 L 30.304688 -5.449219 C 31.125 -2.984375 29.109375 -0.449219 26.648438 -0.449219 L 26.648438 0 L 49.636719 0 L 49.636719 -0.449219 C 47.398438 -0.449219 45.457031 -1.867188 44.785156 -3.882812 Z M 13.957031 -12.167969 L 21.125 -31.945312 C 24.480469 -22.167969 25.601562 -19.035156 27.992188 -12.167969 Z M 13.957031 -12.167969 "/></g></g></g><g fill="#000000" fill-opacity="1"><g transform="translate(407.628579, 138.16154)"><g><path d="M 36.574219 -13.210938 C 34.707031 -5.820312 27.992188 -0.449219 20.078125 -0.449219 L 19.855469 -0.449219 L 19.855469 -47.324219 C 19.855469 -49.785156 21.871094 -51.800781 24.40625 -51.800781 L 24.40625 -52.25 L 2.238281 -52.25 L 2.238281 -51.800781 C 4.703125 -51.800781 6.71875 -49.785156 6.71875 -47.324219 L 6.71875 -4.925781 C 6.71875 -2.464844 4.703125 -0.449219 2.238281 -0.449219 L 2.238281 0 L 37.023438 0 L 37.023438 -13.210938 Z M 36.574219 -13.210938 "/></g></g></g><g fill="#545454" fill-opacity="1"><g transform="translate(203.233601, 159.916015)"><g><path d="M 0.859375 -0.515625 C 1.222656 -0.523438 1.484375 -0.609375 1.640625 -0.765625 C 1.796875 -0.921875 1.882812 -1.101562 1.90625 -1.3125 C 1.925781 -1.53125 1.9375 -1.910156 1.9375 -2.453125 L 1.9375 -9.21875 C 1.9375 -9.664062 1.957031 -10.046875 2 -10.359375 L 0.859375 -10.296875 L 0.859375 -10.984375 L 4.390625 -10.984375 L 4.390625 -10.46875 C 4.023438 -10.457031 3.765625 -10.375 3.609375 -10.21875 C 3.453125 -10.0625 3.363281 -9.875 3.34375 -9.65625 C 3.320312 -9.4375 3.3125 -9.0625 3.3125 -8.53125 L 3.3125 -5.9375 L 8.921875 -5.9375 L 8.921875 -9.21875 C 8.921875 -9.664062 8.9375 -10.046875 8.96875 -10.359375 L 7.84375 -10.296875 L 7.84375 -10.984375 L 11.375 -10.984375 L 11.375 -10.46875 C 11.007812 -10.457031 10.75 -10.375 10.59375 -10.21875 C 10.4375 -10.0625 10.347656 -9.875 10.328125 -9.65625 C 10.304688 -9.4375 10.296875 -9.0625 10.296875 -8.53125 L 10.296875 -1.859375 C 10.296875 -1.304688 10.28125 -0.894531 10.25 -0.625 L 11.375 -0.6875 L 11.375 0 L 7.84375 0 L 7.84375 -0.515625 C 8.207031 -0.523438 8.46875 -0.609375 8.625 -0.765625 C 8.78125 -0.921875 8.867188 -1.101562 8.890625 -1.3125 C 8.910156 -1.53125 8.921875 -1.910156 8.921875 -2.453125 L 8.921875 -5.296875 L 3.3125 -5.234375 L 3.3125 -1.859375 C 3.3125 -1.304688 3.296875 -0.894531 3.265625 -0.625 L 4.390625 -0.6875 L 4.390625 0 L 0.859375 0 Z M 0.859375 -0.515625 "/></g></g></g><g fill="#545454" fill-opacity="1"><g transform="translate(215.46373, 159.916015)"><g><path d="M 6.3125 0.25 C 5.050781 0.25 4 -0.0234375 3.15625 -0.578125 C 2.320312 -1.128906 1.707031 -1.84375 1.3125 -2.71875 C 0.914062 -3.59375 0.71875 -4.515625 0.71875 -5.484375 C 0.71875 -6.421875 0.921875 -7.328125 1.328125 -8.203125 C 1.742188 -9.078125 2.363281 -9.800781 3.1875 -10.375 C 4.007812 -10.945312 5.007812 -11.234375 6.1875 -11.234375 C 7.382812 -11.234375 8.40625 -10.945312 9.25 -10.375 C 10.09375 -9.800781 10.722656 -9.078125 11.140625 -8.203125 C 11.554688 -7.328125 11.765625 -6.421875 11.765625 -5.484375 C 11.765625 -4.566406 11.554688 -3.664062 11.140625 -2.78125 C 10.734375 -1.894531 10.117188 -1.164062 9.296875 -0.59375 C 8.472656 -0.03125 7.476562 0.25 6.3125 0.25 Z M 6.34375 -0.390625 C 7.15625 -0.390625 7.847656 -0.617188 8.421875 -1.078125 C 9.003906 -1.546875 9.445312 -2.144531 9.75 -2.875 C 10.050781 -3.613281 10.203125 -4.382812 10.203125 -5.1875 C 10.203125 -6.082031 10.035156 -6.941406 9.703125 -7.765625 C 9.378906 -8.597656 8.910156 -9.28125 8.296875 -9.8125 C 7.679688 -10.34375 6.960938 -10.609375 6.140625 -10.609375 C 5.316406 -10.609375 4.613281 -10.375 4.03125 -9.90625 C 3.445312 -9.4375 3.003906 -8.832031 2.703125 -8.09375 C 2.410156 -7.351562 2.265625 -6.578125 2.265625 -5.765625 C 2.265625 -4.941406 2.414062 -4.113281 2.71875 -3.28125 C 3.019531 -2.457031 3.476562 -1.769531 4.09375 -1.21875 C 4.707031 -0.664062 5.457031 -0.390625 6.34375 -0.390625 Z M 6.34375 -0.390625 "/></g></g></g><g fill="#545454" fill-opacity="1"><g transform="translate(227.913379, 159.916015)"><g><path d="M 3.265625 -0.515625 C 3.710938 -0.535156 4 -0.660156 4.125 -0.890625 C 4.257812 -1.117188 4.328125 -1.472656 4.328125 -1.953125 L 4.328125 -2.453125 L 4.34375 -10.40625 L 2.734375 -10.390625 C 2.078125 -10.390625 1.609375 -10.171875 1.328125 -9.734375 C 1.054688 -9.296875 0.921875 -8.609375 0.921875 -7.671875 L 0.34375 -7.671875 L 0.4375 -10.984375 L 9.578125 -10.984375 L 9.671875 -7.671875 L 9.078125 -7.671875 C 9.066406 -8.328125 9 -8.851562 8.875 -9.25 C 8.757812 -9.644531 8.554688 -9.9375 8.265625 -10.125 C 7.984375 -10.320312 7.578125 -10.421875 7.046875 -10.421875 L 5.703125 -10.421875 L 5.6875 -1.859375 C 5.6875 -1.304688 5.671875 -0.894531 5.640625 -0.625 L 6.953125 -0.6875 L 6.953125 0 L 3.265625 0 Z M 3.265625 -0.515625 "/></g></g></g><g fill="#545454" fill-opacity="1"><g transform="translate(237.948359, 159.916015)"><g><path d="M 0.859375 -0.515625 C 1.222656 -0.523438 1.484375 -0.609375 1.640625 -0.765625 C 1.796875 -0.921875 1.882812 -1.101562 1.90625 -1.3125 C 1.925781 -1.53125 1.9375 -1.910156 1.9375 -2.453125 L 1.9375 -9.21875 C 1.9375 -9.664062 1.957031 -10.046875 2 -10.359375 L 0.859375 -10.296875 L 0.859375 -10.984375 L 8.40625 -10.984375 L 8.484375 -8.234375 L 7.96875 -8.234375 C 7.96875 -9.085938 7.78125 -9.671875 7.40625 -9.984375 C 7.039062 -10.304688 6.519531 -10.457031 5.84375 -10.4375 L 4.5 -10.40625 C 4.125 -10.394531 3.851562 -10.320312 3.6875 -10.1875 C 3.519531 -10.0625 3.414062 -9.878906 3.375 -9.640625 C 3.332031 -9.398438 3.3125 -9.03125 3.3125 -8.53125 L 3.3125 -6.03125 L 6.265625 -6.015625 L 6.15625 -7.359375 L 6.84375 -7.359375 L 6.84375 -4.0625 L 6.328125 -4.0625 C 6.328125 -4.445312 6.28125 -4.738281 6.1875 -4.9375 C 6.09375 -5.144531 5.945312 -5.28125 5.75 -5.34375 C 5.550781 -5.414062 5.28125 -5.453125 4.9375 -5.453125 L 4.453125 -5.4375 L 3.3125 -5.390625 L 3.3125 -1.796875 C 3.3125 -1.253906 3.296875 -0.847656 3.265625 -0.578125 L 6.265625 -0.625 C 6.992188 -0.632812 7.550781 -0.816406 7.9375 -1.171875 C 8.320312 -1.535156 8.515625 -2.164062 8.515625 -3.0625 L 9.046875 -3.0625 L 8.953125 0 L 0.859375 0 Z M 0.859375 -0.515625 "/></g></g></g><g fill="#545454" fill-opacity="1"><g transform="translate(247.701105, 159.916015)"><g><path d="M 0.859375 -0.515625 C 1.222656 -0.523438 1.484375 -0.609375 1.640625 -0.765625 C 1.796875 -0.921875 1.882812 -1.101562 1.90625 -1.3125 C 1.925781 -1.53125 1.9375 -1.910156 1.9375 -2.453125 L 1.9375 -9.21875 C 1.9375 -9.664062 1.957031 -10.046875 2 -10.359375 L 0.859375 -10.296875 L 0.859375 -10.984375 L 4.390625 -10.984375 L 4.390625 -10.46875 C 4.023438 -10.457031 3.765625 -10.375 3.609375 -10.21875 C 3.453125 -10.0625 3.363281 -9.875 3.34375 -9.65625 C 3.320312 -9.4375 3.3125 -9.0625 3.3125 -8.53125 L 3.3125 -1.796875 C 3.3125 -1.253906 3.296875 -0.847656 3.265625 -0.578125 L 6.203125 -0.625 C 6.867188 -0.632812 7.367188 -0.84375 7.703125 -1.25 C 8.035156 -1.664062 8.203125 -2.332031 8.203125 -3.25 L 8.734375 -3.25 L 8.640625 0 L 0.859375 0 Z M 0.859375 -0.515625 "/></g></g></g><g fill="#545454" fill-opacity="1"><g transform="translate(256.763944, 159.916015)"><g/></g></g><g fill="#545454" fill-opacity="1"><g transform="translate(260.887696, 159.916015)"><g><path d="M 4.25 0.25 C 3.601562 0.25 3 0.144531 2.4375 -0.0625 C 1.875 -0.28125 1.421875 -0.617188 1.078125 -1.078125 C 0.734375 -1.535156 0.5625 -2.117188 0.5625 -2.828125 C 0.5625 -3.484375 0.773438 -4.070312 1.203125 -4.59375 C 1.640625 -5.125 2.25 -5.5625 3.03125 -5.90625 C 2.613281 -6.4375 2.304688 -6.921875 2.109375 -7.359375 C 1.921875 -7.804688 1.828125 -8.273438 1.828125 -8.765625 C 1.835938 -9.515625 2.113281 -10.113281 2.65625 -10.5625 C 3.195312 -11.007812 3.890625 -11.234375 4.734375 -11.234375 C 5.242188 -11.234375 5.695312 -11.132812 6.09375 -10.9375 C 6.5 -10.75 6.8125 -10.484375 7.03125 -10.140625 C 7.25 -9.804688 7.359375 -9.4375 7.359375 -9.03125 C 7.359375 -8.425781 7.15625 -7.867188 6.75 -7.359375 C 6.351562 -6.859375 5.695312 -6.378906 4.78125 -5.921875 C 5.03125 -5.640625 5.453125 -5.195312 6.046875 -4.59375 C 6.492188 -4.125 7.039062 -3.585938 7.6875 -2.984375 C 7.789062 -3.335938 7.84375 -3.671875 7.84375 -3.984375 C 7.84375 -4.398438 7.75 -4.757812 7.5625 -5.0625 C 7.382812 -5.363281 7.082031 -5.523438 6.65625 -5.546875 L 6.65625 -6.078125 L 9.390625 -6.078125 L 9.390625 -5.421875 L 8.09375 -5.484375 C 8.414062 -5.203125 8.578125 -4.734375 8.578125 -4.078125 C 8.578125 -3.554688 8.472656 -3.019531 8.265625 -2.46875 L 8.578125 -2.1875 C 8.722656 -2.050781 8.878906 -1.90625 9.046875 -1.75 C 9.492188 -1.34375 9.890625 -1.035156 10.234375 -0.828125 C 10.585938 -0.617188 10.851562 -0.515625 11.03125 -0.515625 L 11.03125 0 L 9.5625 0 C 9.445312 0 9.21875 -0.109375 8.875 -0.328125 C 8.53125 -0.546875 8.113281 -0.867188 7.625 -1.296875 C 6.820312 -0.265625 5.695312 0.25 4.25 0.25 Z M 4.4375 -6.296875 C 5 -6.671875 5.425781 -7.09375 5.71875 -7.5625 C 6.019531 -8.03125 6.171875 -8.503906 6.171875 -8.984375 C 6.171875 -9.492188 6.035156 -9.910156 5.765625 -10.234375 C 5.492188 -10.566406 5.125 -10.734375 4.65625 -10.734375 C 4.21875 -10.734375 3.859375 -10.566406 3.578125 -10.234375 C 3.296875 -9.910156 3.15625 -9.460938 3.15625 -8.890625 C 3.15625 -8.109375 3.582031 -7.242188 4.4375 -6.296875 Z M 4.59375 -0.53125 C 5.664062 -0.53125 6.507812 -0.929688 7.125 -1.734375 C 6.914062 -1.929688 6.765625 -2.078125 6.671875 -2.171875 L 6.4375 -2.390625 C 6.28125 -2.546875 5.84375 -2.972656 5.125 -3.671875 C 4.40625 -4.378906 3.84375 -4.96875 3.4375 -5.4375 C 2.988281 -5.164062 2.660156 -4.800781 2.453125 -4.34375 C 2.242188 -3.894531 2.140625 -3.46875 2.140625 -3.0625 C 2.140625 -2.21875 2.378906 -1.582031 2.859375 -1.15625 C 3.335938 -0.738281 3.914062 -0.53125 4.59375 -0.53125 Z M 4.59375 -0.53125 "/></g></g></g><g fill="#545454" fill-opacity="1"><g transform="translate(271.785057, 159.916015)"><g/></g></g><g fill="#545454" fill-opacity="1"><g transform="translate(275.90881, 159.916015)"><g><path d="M 0.859375 -0.515625 C 1.222656 -0.523438 1.484375 -0.609375 1.640625 -0.765625 C 1.796875 -0.921875 1.882812 -1.101562 1.90625 -1.3125 C 1.925781 -1.53125 1.9375 -1.910156 1.9375 -2.453125 L 1.9375 -9.21875 C 1.9375 -9.664062 1.957031 -10.046875 2 -10.359375 L 0.859375 -10.296875 L 0.859375 -10.984375 C 1.953125 -11.003906 2.773438 -11.015625 3.328125 -11.015625 C 3.828125 -11.015625 4.203125 -11.007812 4.453125 -11 C 5.929688 -10.976562 7.007812 -10.726562 7.6875 -10.25 C 8.375 -9.769531 8.71875 -9.082031 8.71875 -8.1875 C 8.726562 -7.46875 8.515625 -6.816406 8.078125 -6.234375 C 7.640625 -5.660156 6.875 -5.265625 5.78125 -5.046875 C 5.96875 -4.910156 6.132812 -4.75 6.28125 -4.5625 C 6.425781 -4.375 6.625 -4.082031 6.875 -3.6875 L 7.9375 -2.015625 C 8.164062 -1.640625 8.351562 -1.351562 8.5 -1.15625 C 8.65625 -0.96875 8.835938 -0.8125 9.046875 -0.6875 C 9.265625 -0.570312 9.535156 -0.515625 9.859375 -0.515625 L 9.859375 0 L 7.875 0 C 7.59375 -0.238281 7.351562 -0.484375 7.15625 -0.734375 C 6.96875 -0.992188 6.742188 -1.328125 6.484375 -1.734375 L 5.421875 -3.421875 L 5.21875 -3.75 C 5.050781 -4.03125 4.90625 -4.257812 4.78125 -4.4375 C 4.65625 -4.613281 4.519531 -4.769531 4.375 -4.90625 C 4.28125 -4.894531 4.132812 -4.890625 3.9375 -4.890625 C 3.65625 -4.890625 3.445312 -4.894531 3.3125 -4.90625 L 3.3125 -1.859375 C 3.3125 -1.304688 3.296875 -0.894531 3.265625 -0.625 L 4.390625 -0.6875 L 4.390625 0 L 0.859375 0 Z M 4 -5.484375 C 6.132812 -5.484375 7.203125 -6.328125 7.203125 -8.015625 C 7.203125 -8.804688 6.96875 -9.398438 6.5 -9.796875 C 6.039062 -10.203125 5.335938 -10.40625 4.390625 -10.40625 C 4.023438 -10.40625 3.765625 -10.332031 3.609375 -10.1875 C 3.453125 -10.039062 3.363281 -9.859375 3.34375 -9.640625 C 3.320312 -9.429688 3.3125 -9.0625 3.3125 -8.53125 L 3.3125 -5.515625 C 3.625 -5.492188 3.851562 -5.484375 4 -5.484375 Z M 4 -5.484375 "/></g></g></g><g fill="#545454" fill-opacity="1"><g transform="translate(285.755637, 159.916015)"><g><path d="M 0.859375 -0.515625 C 1.222656 -0.523438 1.484375 -0.609375 1.640625 -0.765625 C 1.796875 -0.921875 1.882812 -1.101562 1.90625 -1.3125 C 1.925781 -1.53125 1.9375 -1.910156 1.9375 -2.453125 L 1.9375 -9.21875 C 1.9375 -9.664062 1.957031 -10.046875 2 -10.359375 L 0.859375 -10.296875 L 0.859375 -10.984375 L 8.40625 -10.984375 L 8.484375 -8.234375 L 7.96875 -8.234375 C 7.96875 -9.085938 7.78125 -9.671875 7.40625 -9.984375 C 7.039062 -10.304688 6.519531 -10.457031 5.84375 -10.4375 L 4.5 -10.40625 C 4.125 -10.394531 3.851562 -10.320312 3.6875 -10.1875 C 3.519531 -10.0625 3.414062 -9.878906 3.375 -9.640625 C 3.332031 -9.398438 3.3125 -9.03125 3.3125 -8.53125 L 3.3125 -6.03125 L 6.265625 -6.015625 L 6.15625 -7.359375 L 6.84375 -7.359375 L 6.84375 -4.0625 L 6.328125 -4.0625 C 6.328125 -4.445312 6.28125 -4.738281 6.1875 -4.9375 C 6.09375 -5.144531 5.945312 -5.28125 5.75 -5.34375 C 5.550781 -5.414062 5.28125 -5.453125 4.9375 -5.453125 L 4.453125 -5.4375 L 3.3125 -5.390625 L 3.3125 -1.796875 C 3.3125 -1.253906 3.296875 -0.847656 3.265625 -0.578125 L 6.265625 -0.625 C 6.992188 -0.632812 7.550781 -0.816406 7.9375 -1.171875 C 8.320312 -1.535156 8.515625 -2.164062 8.515625 -3.0625 L 9.046875 -3.0625 L 8.953125 0 L 0.859375 0 Z M 0.859375 -0.515625 "/></g></g></g><g fill="#545454" fill-opacity="1"><g transform="translate(295.508383, 159.916015)"><g><path d="M 4.53125 0.25 C 4.039062 0.25 3.546875 0.179688 3.046875 0.046875 C 2.554688 -0.0859375 2.117188 -0.285156 1.734375 -0.546875 L 1.8125 0.125 L 1 0.125 L 0.90625 -3.21875 L 1.515625 -3.21875 C 1.566406 -2.3125 1.875 -1.613281 2.4375 -1.125 C 3.007812 -0.644531 3.726562 -0.40625 4.59375 -0.40625 C 5.226562 -0.40625 5.765625 -0.578125 6.203125 -0.921875 C 6.640625 -1.273438 6.859375 -1.757812 6.859375 -2.375 C 6.859375 -2.820312 6.734375 -3.203125 6.484375 -3.515625 C 6.242188 -3.835938 5.941406 -4.101562 5.578125 -4.3125 C 5.210938 -4.53125 4.722656 -4.78125 4.109375 -5.0625 C 3.410156 -5.394531 2.851562 -5.6875 2.4375 -5.9375 C 2.019531 -6.195312 1.664062 -6.53125 1.375 -6.9375 C 1.082031 -7.351562 0.9375 -7.863281 0.9375 -8.46875 C 0.9375 -8.882812 1.03125 -9.300781 1.21875 -9.71875 C 1.414062 -10.144531 1.753906 -10.503906 2.234375 -10.796875 C 2.710938 -11.085938 3.34375 -11.234375 4.125 -11.234375 C 4.59375 -11.234375 5.066406 -11.171875 5.546875 -11.046875 C 6.023438 -10.929688 6.460938 -10.726562 6.859375 -10.4375 L 6.796875 -11.109375 L 7.59375 -11.109375 L 7.59375 -7.65625 L 7.03125 -7.65625 C 6.976562 -8.476562 6.710938 -9.175781 6.234375 -9.75 C 5.753906 -10.320312 5.085938 -10.609375 4.234375 -10.609375 C 3.609375 -10.609375 3.117188 -10.429688 2.765625 -10.078125 C 2.410156 -9.722656 2.234375 -9.285156 2.234375 -8.765625 C 2.234375 -8.347656 2.351562 -7.988281 2.59375 -7.6875 C 2.832031 -7.382812 3.125 -7.132812 3.46875 -6.9375 C 3.8125 -6.738281 4.296875 -6.492188 4.921875 -6.203125 C 5.640625 -5.867188 6.210938 -5.570312 6.640625 -5.3125 C 7.078125 -5.050781 7.445312 -4.707031 7.75 -4.28125 C 8.050781 -3.863281 8.203125 -3.347656 8.203125 -2.734375 C 8.203125 -2.140625 8.054688 -1.617188 7.765625 -1.171875 C 7.484375 -0.722656 7.0625 -0.375 6.5 -0.125 C 5.945312 0.125 5.289062 0.25 4.53125 0.25 Z M 4.53125 0.25 "/></g></g></g><g fill="#545454" fill-opacity="1"><g transform="translate(304.398748, 159.916015)"><g><path d="M 6.3125 0.25 C 5.050781 0.25 4 -0.0234375 3.15625 -0.578125 C 2.320312 -1.128906 1.707031 -1.84375 1.3125 -2.71875 C 0.914062 -3.59375 0.71875 -4.515625 0.71875 -5.484375 C 0.71875 -6.421875 0.921875 -7.328125 1.328125 -8.203125 C 1.742188 -9.078125 2.363281 -9.800781 3.1875 -10.375 C 4.007812 -10.945312 5.007812 -11.234375 6.1875 -11.234375 C 7.382812 -11.234375 8.40625 -10.945312 9.25 -10.375 C 10.09375 -9.800781 10.722656 -9.078125 11.140625 -8.203125 C 11.554688 -7.328125 11.765625 -6.421875 11.765625 -5.484375 C 11.765625 -4.566406 11.554688 -3.664062 11.140625 -2.78125 C 10.734375 -1.894531 10.117188 -1.164062 9.296875 -0.59375 C 8.472656 -0.03125 7.476562 0.25 6.3125 0.25 Z M 6.34375 -0.390625 C 7.15625 -0.390625 7.847656 -0.617188 8.421875 -1.078125 C 9.003906 -1.546875 9.445312 -2.144531 9.75 -2.875 C 10.050781 -3.613281 10.203125 -4.382812 10.203125 -5.1875 C 10.203125 -6.082031 10.035156 -6.941406 9.703125 -7.765625 C 9.378906 -8.597656 8.910156 -9.28125 8.296875 -9.8125 C 7.679688 -10.34375 6.960938 -10.609375 6.140625 -10.609375 C 5.316406 -10.609375 4.613281 -10.375 4.03125 -9.90625 C 3.445312 -9.4375 3.003906 -8.832031 2.703125 -8.09375 C 2.410156 -7.351562 2.265625 -6.578125 2.265625 -5.765625 C 2.265625 -4.941406 2.414062 -4.113281 2.71875 -3.28125 C 3.019531 -2.457031 3.476562 -1.769531 4.09375 -1.21875 C 4.707031 -0.664062 5.457031 -0.390625 6.34375 -0.390625 Z M 6.34375 -0.390625 "/></g></g></g><g fill="#545454" fill-opacity="1"><g transform="translate(316.848397, 159.916015)"><g><path d="M 0.859375 -0.515625 C 1.222656 -0.523438 1.484375 -0.609375 1.640625 -0.765625 C 1.796875 -0.921875 1.882812 -1.101562 1.90625 -1.3125 C 1.925781 -1.53125 1.9375 -1.910156 1.9375 -2.453125 L 1.9375 -9.21875 C 1.9375 -9.664062 1.957031 -10.046875 2 -10.359375 L 0.859375 -10.296875 L 0.859375 -10.984375 C 1.953125 -11.003906 2.773438 -11.015625 3.328125 -11.015625 C 3.828125 -11.015625 4.203125 -11.007812 4.453125 -11 C 5.929688 -10.976562 7.007812 -10.726562 7.6875 -10.25 C 8.375 -9.769531 8.71875 -9.082031 8.71875 -8.1875 C 8.726562 -7.46875 8.515625 -6.816406 8.078125 -6.234375 C 7.640625 -5.660156 6.875 -5.265625 5.78125 -5.046875 C 5.96875 -4.910156 6.132812 -4.75 6.28125 -4.5625 C 6.425781 -4.375 6.625 -4.082031 6.875 -3.6875 L 7.9375 -2.015625 C 8.164062 -1.640625 8.351562 -1.351562 8.5 -1.15625 C 8.65625 -0.96875 8.835938 -0.8125 9.046875 -0.6875 C 9.265625 -0.570312 9.535156 -0.515625 9.859375 -0.515625 L 9.859375 0 L 7.875 0 C 7.59375 -0.238281 7.351562 -0.484375 7.15625 -0.734375 C 6.96875 -0.992188 6.742188 -1.328125 6.484375 -1.734375 L 5.421875 -3.421875 L 5.21875 -3.75 C 5.050781 -4.03125 4.90625 -4.257812 4.78125 -4.4375 C 4.65625 -4.613281 4.519531 -4.769531 4.375 -4.90625 C 4.28125 -4.894531 4.132812 -4.890625 3.9375 -4.890625 C 3.65625 -4.890625 3.445312 -4.894531 3.3125 -4.90625 L 3.3125 -1.859375 C 3.3125 -1.304688 3.296875 -0.894531 3.265625 -0.625 L 4.390625 -0.6875 L 4.390625 0 L 0.859375 0 Z M 4 -5.484375 C 6.132812 -5.484375 7.203125 -6.328125 7.203125 -8.015625 C 7.203125 -8.804688 6.96875 -9.398438 6.5 -9.796875 C 6.039062 -10.203125 5.335938 -10.40625 4.390625 -10.40625 C 4.023438 -10.40625 3.765625 -10.332031 3.609375 -10.1875 C 3.453125 -10.039062 3.363281 -9.859375 3.34375 -9.640625 C 3.320312 -9.429688 3.3125 -9.0625 3.3125 -8.53125 L 3.3125 -5.515625 C 3.625 -5.492188 3.851562 -5.484375 4 -5.484375 Z M 4 -5.484375 "/></g></g></g><g fill="#545454" fill-opacity="1"><g transform="translate(326.695225, 159.916015)"><g><path d="M 3.265625 -0.515625 C 3.710938 -0.535156 4 -0.660156 4.125 -0.890625 C 4.257812 -1.117188 4.328125 -1.472656 4.328125 -1.953125 L 4.328125 -2.453125 L 4.34375 -10.40625 L 2.734375 -10.390625 C 2.078125 -10.390625 1.609375 -10.171875 1.328125 -9.734375 C 1.054688 -9.296875 0.921875 -8.609375 0.921875 -7.671875 L 0.34375 -7.671875 L 0.4375 -10.984375 L 9.578125 -10.984375 L 9.671875 -7.671875 L 9.078125 -7.671875 C 9.066406 -8.328125 9 -8.851562 8.875 -9.25 C 8.757812 -9.644531 8.554688 -9.9375 8.265625 -10.125 C 7.984375 -10.320312 7.578125 -10.421875 7.046875 -10.421875 L 5.703125 -10.421875 L 5.6875 -1.859375 C 5.6875 -1.304688 5.671875 -0.894531 5.640625 -0.625 L 6.953125 -0.6875 L 6.953125 0 L 3.265625 0 Z M 3.265625 -0.515625 "/></g></g></g></svg>