<?xml version="1.0" encoding="utf-8"?>
<svg width="700" zoomAndPan="magnify" viewBox="0 0 525 239.999995" height="320" preserveAspectRatio="xMidYMid meet" version="1.0" xmlns="http://www.w3.org/2000/svg" xmlns:bx="https://boxy-svg.com">
  <defs>
    <g/>
    <bx:grid x="-15.784" y="-3.323" width="555.237" height="247.869"/>
  </defs>
  <g fill="#000000" fill-opacity="1" style="" transform="matrix(1.521313, 0, 0, 2.839687, -138.36821, -211.006943)">
    <g transform="translate(78.116403, 138.16154)">
      <g>
        <path d="M 2.238281 -52.25 L 2.238281 -38.140625 L 2.6875 -38.140625 C 4.703125 -45.980469 9.628906 -51.800781 18.0625 -51.800781 L 18.0625 -4.925781 C 18.0625 -2.464844 16.121094 -0.449219 13.585938 -0.449219 L 13.585938 0 L 35.753906 0 L 35.753906 -0.449219 C 33.289062 -0.449219 31.273438 -2.464844 31.273438 -4.925781 L 31.273438 -51.800781 C 39.710938 -51.800781 44.636719 -45.980469 46.652344 -38.140625 L 47.097656 -38.140625 L 47.097656 -52.25 Z M 2.238281 -52.25 "/>
      </g>
    </g>
  </g>
  <g fill="#000000" fill-opacity="1" style="" transform="matrix(1.433592, 0, 0, 1.955, -114.884644, -124.349907)">
    <g transform="translate(127.449939, 138.16154)">
      <g>
        <path d="M 28.406 -16.823 C 26.507 -19.536 24.132 -19.752 24.132 -19.752 L 25.318 -19.752 C 33.559 -19.752 40.212 -28.205 40.212 -38.725 C 40.212 -49.239 33.559 -57.699 25.318 -57.699 L -6.207 -57.699 L -6.207 -57.047 C -3.592 -57.047 -1.452 -54.118 -1.452 -50.544 C -1.452 -22.134 -1.452 -17.363 -1.452 11.041 C -1.452 14.615 -3.592 17.543 -6.207 17.543 L -6.207 18.195 L 17.317 18.195 L 17.317 17.543 C 14.627 17.543 12.488 14.615 12.488 11.041 L 12.488 -14.327 C 12.488 -15.74 12.488 -17.585 12.488 -19.428 L 12.882 -19.428 C 18.744 -19.428 16.21 22.859 34.429 22.752 C 38.624 22.638 42.509 21.016 44.486 18.195 L 44.486 17.543 C 35.378 19.933 34.902 -7.825 28.406 -16.823 Z M 17.715 -20.075 L 12.488 -20.075 C 12.488 -21.918 12.488 -23.763 12.488 -57.047 L 17.715 -57.047 C 22.387 -57.047 26.189 -48.808 26.189 -38.616 C 26.189 -28.314 22.387 -20.075 17.715 -20.075 Z M 17.715 -20.075" style=""/>
      </g>
    </g>
  </g>
  <g fill="#000000" fill-opacity="1" style="" transform="matrix(1.521313, 0, 0, 2.839687, -138.36821, -211.006943)">
    <g transform="translate(178.947877, 138.16154)">
      <g>
        <path d="M 26.496094 -52.25 C 13.511719 -52.25 2.984375 -40.53125 2.984375 -26.125 C 2.984375 -11.71875 13.511719 0 26.496094 0 C 39.484375 0 50.007812 -11.71875 50.007812 -26.125 C 50.007812 -40.53125 39.484375 -52.25 26.496094 -52.25 Z M 26.496094 -0.449219 C 20.226562 -0.449219 16.867188 -9.03125 16.867188 -26.125 C 16.867188 -43.21875 20.226562 -51.800781 26.496094 -51.800781 C 32.765625 -51.800781 36.125 -43.21875 36.125 -26.125 C 36.125 -9.03125 32.765625 -0.449219 26.496094 -0.449219 Z M 26.496094 -0.449219 "/>
      </g>
    </g>
  </g>
  <g fill="#000000" fill-opacity="1" style="" transform="matrix(1.521313, 0, 0, 2.839687, -138.36821, -211.006943)">
    <g transform="translate(231.938507, 138.16154)">
      <g>
        <path d="M 45.53125 -36.648438 C 45.53125 -45.308594 38.886719 -52.25 30.675781 -52.25 L 2.238281 -52.25 L 2.238281 -51.800781 C 4.703125 -51.800781 6.71875 -49.785156 6.71875 -47.324219 L 6.71875 -4.925781 C 6.71875 -2.464844 4.703125 -0.449219 2.238281 -0.449219 L 2.238281 0 L 24.40625 0 L 24.40625 -0.449219 C 21.871094 -0.449219 19.855469 -2.464844 19.855469 -4.925781 L 19.855469 -16.570312 C 26.945312 -17.914062 45.53125 -20.75 45.53125 -36.648438 Z M 23.0625 -51.800781 C 27.765625 -51.800781 31.574219 -45.007812 31.574219 -36.648438 C 31.574219 -27.914062 28.363281 -21.125 19.855469 -17.316406 L 19.855469 -51.800781 Z M 23.0625 -51.800781 "/>
      </g>
    </g>
  </g>
  <g fill="#000000" fill-opacity="1" style="" transform="matrix(1.521313, 0, 0, 2.839687, -138.36821, -211.006943)">
    <g transform="translate(279.704712, 138.16154)">
      <g>
        <path d="M 24.40625 -51.800781 L 24.40625 -52.25 L 2.238281 -52.25 L 2.238281 -51.800781 C 4.703125 -51.800781 6.71875 -49.785156 6.71875 -47.324219 L 6.71875 -4.925781 C 6.71875 -2.464844 4.703125 -0.449219 2.238281 -0.449219 L 2.238281 0 L 24.40625 0 L 24.40625 -0.449219 C 21.871094 -0.449219 19.855469 -2.464844 19.855469 -4.925781 L 19.855469 -47.324219 C 19.855469 -49.785156 21.871094 -51.800781 24.40625 -51.800781 Z M 24.40625 -51.800781 "/>
      </g>
    </g>
  </g>
  <g fill="#000000" fill-opacity="1" style="" transform="matrix(1.521313, 0, 0, 2.839687, -138.36821, -211.006943)">
    <g transform="translate(306.3493, 138.16154)">
      <g>
        <path d="M 26.496094 -51.800781 C 29.035156 -51.800781 34.855469 -51.128906 34.855469 -47.546875 C 34.855469 -43.890625 30.453125 -42.992188 30.453125 -37.695312 C 30.453125 -33.289062 34.035156 -29.707031 38.441406 -29.707031 C 42.84375 -29.707031 46.425781 -33.289062 46.425781 -37.695312 C 46.425781 -44.1875 37.097656 -52.25 26.496094 -52.25 C 13.511719 -52.25 2.984375 -40.53125 2.984375 -26.125 C 2.984375 -11.71875 13.511719 0 26.496094 0 C 34.855469 0 42.246094 -4.851562 46.425781 -12.242188 L 46.054688 -12.464844 C 43.066406 -9.03125 39.039062 -6.867188 34.933594 -6.867188 C 25.304688 -6.867188 17.464844 -17.988281 17.464844 -31.648438 C 17.464844 -42.695312 22.167969 -51.800781 26.496094 -51.800781 Z M 26.496094 -51.800781 "/>
      </g>
    </g>
  </g>
  <g fill="#000000" fill-opacity="1" style="" transform="matrix(1.521313, 0, 0, 2.839687, -138.36821, -211.006943)">
    <g transform="translate(355.757464, 138.16154)">
      <g>
        <path d="M 44.785156 -3.882812 C 37.992188 -23.289062 36.949219 -26.496094 27.992188 -52.25 L 12.316406 -8.957031 C 10.75 -4.777344 6.570312 -1.046875 2.238281 -0.449219 L 2.238281 0 L 20.453125 0 L 20.453125 -0.449219 C 16.273438 -0.449219 12.914062 -3.730469 12.914062 -7.910156 C 12.914062 -8.808594 13.0625 -9.628906 13.285156 -10.375 L 13.808594 -11.71875 L 28.140625 -11.71875 L 30.304688 -5.449219 C 31.125 -2.984375 29.109375 -0.449219 26.648438 -0.449219 L 26.648438 0 L 49.636719 0 L 49.636719 -0.449219 C 47.398438 -0.449219 45.457031 -1.867188 44.785156 -3.882812 Z M 13.957031 -12.167969 L 21.125 -31.945312 C 24.480469 -22.167969 25.601562 -19.035156 27.992188 -12.167969 Z M 13.957031 -12.167969 "/>
      </g>
    </g>
  </g>
  <g fill="#000000" fill-opacity="1" style="" transform="matrix(1.521313, 0, 0, 2.839687, -138.36821, -211.006943)">
    <g transform="translate(407.628579, 138.16154)">
      <g>
        <path d="M 36.574219 -13.210938 C 34.707031 -5.820312 27.992188 -0.449219 20.078125 -0.449219 L 19.855469 -0.449219 L 19.855469 -47.324219 C 19.855469 -49.785156 21.871094 -51.800781 24.40625 -51.800781 L 24.40625 -52.25 L 2.238281 -52.25 L 2.238281 -51.800781 C 4.703125 -51.800781 6.71875 -49.785156 6.71875 -47.324219 L 6.71875 -4.925781 C 6.71875 -2.464844 4.703125 -0.449219 2.238281 -0.449219 L 2.238281 0 L 37.023438 0 L 37.023438 -13.210938 Z M 36.574219 -13.210938 "/>
      </g>
    </g>
  </g>
  <g fill="#545454" fill-opacity="1" style="" transform="matrix(1.433592, 0, 0, 1.955, -114.884644, -124.349907)">
    <g transform="translate(203.233601, 159.916015)">
      <g/>
    </g>
  </g>
  <g fill="#545454" fill-opacity="1" style="" transform="matrix(1.433592, 0, 0, 1.955, -114.884644, -124.349907)">
    <g transform="translate(215.46373, 159.916015)">
      <g/>
    </g>
  </g>
  <g fill="#545454" fill-opacity="1" style="" transform="matrix(1.433592, 0, 0, 1.955, -114.884644, -124.349907)">
    <g transform="translate(227.913379, 159.916015)">
      <g/>
    </g>
  </g>
  <g fill="#545454" fill-opacity="1" style="" transform="matrix(1.433592, 0, 0, 1.955, -114.884644, -124.349907)">
    <g transform="translate(237.948359, 159.916015)">
      <g/>
    </g>
  </g>
  <g fill="#545454" fill-opacity="1" style="" transform="matrix(1.433592, 0, 0, 1.955, -114.884644, -124.349907)">
    <g transform="translate(247.701105, 159.916015)">
      <g/>
    </g>
  </g>
  <g fill="#545454" fill-opacity="1">
    <g transform="translate(256.763944, 159.916015)">
      <g/>
    </g>
  </g>
  <g fill="#545454" fill-opacity="1" style="" transform="matrix(1.433592, 0, 0, 1.955, -114.884644, -124.349907)">
    <g transform="translate(260.887696, 159.916015)">
      <g/>
    </g>
  </g>
  <g fill="#545454" fill-opacity="1">
    <g transform="translate(271.785057, 159.916015)">
      <g/>
    </g>
  </g>
  <g fill="#545454" fill-opacity="1" style="" transform="matrix(1.433592, 0, 0, 1.955, -114.884644, -124.349907)">
    <g transform="translate(275.90881, 159.916015)">
      <g/>
    </g>
  </g>
  <g fill="#545454" fill-opacity="1" style="" transform="matrix(1.433592, 0, 0, 1.955, -114.884644, -124.349907)">
    <g transform="translate(285.755637, 159.916015)">
      <g/>
    </g>
  </g>
  <g fill="#545454" fill-opacity="1" style="" transform="matrix(1.433592, 0, 0, 1.955, -114.884644, -124.349907)">
    <g transform="translate(295.508383, 159.916015)">
      <g/>
    </g>
  </g>
  <g fill="#545454" fill-opacity="1" style="" transform="matrix(1.433592, 0, 0, 1.955, -114.884644, -124.349907)">
    <g transform="translate(304.398748, 159.916015)">
      <g/>
    </g>
  </g>
  <g fill="#545454" fill-opacity="1" style="" transform="matrix(1.433592, 0, 0, 1.955, -114.884644, -124.349907)">
    <g transform="translate(316.848397, 159.916015)">
      <g/>
    </g>
  </g>
  <g fill="#545454" fill-opacity="1" style="" transform="matrix(1.433592, 0, 0, 1.955, -114.884644, -124.349907)">
    <g transform="translate(326.695225, 159.916015)">
      <g/>
    </g>
  </g>
</svg>