<svg xmlns="http://www.w3.org/2000/svg" xmlns:xlink="http://www.w3.org/1999/xlink" width="240" zoomAndPan="magnify" viewBox="0 0 180 48" height="64" preserveAspectRatio="xMidYMid meet" version="1.0"><defs><g/><clipPath id="f087337756"><path d="M 4 38 L 39 38 L 39 43.574219 L 4 43.574219 Z M 4 38 " clip-rule="nonzero"/></clipPath><clipPath id="b538a158d9"><path d="M 3 3.457031 L 21 3.457031 L 21 36 L 3 36 Z M 3 3.457031 " clip-rule="nonzero"/></clipPath><clipPath id="a1965c0092"><path d="M 20 3.457031 L 43 3.457031 L 43 36 L 20 36 Z M 20 3.457031 " clip-rule="nonzero"/></clipPath><clipPath id="b05fd14ab8"><path d="M 1.835938 33 L 49.886719 33 L 49.886719 41 L 1.835938 41 Z M 1.835938 33 " clip-rule="nonzero"/></clipPath></defs><path fill="#000000" d="M 29.09375 20.609375 C 29.175781 20.734375 29.257812 20.863281 29.332031 20.996094 C 29.246094 20.875 29.167969 20.746094 29.09375 20.609375 Z M 23.84375 36.257812 C 24.199219 36.570312 24.519531 36.757812 24.800781 36.832031 C 25 36.882812 25.179688 36.871094 25.339844 36.800781 C 25.449219 32.230469 26.738281 27.460938 29.40625 24.410156 L 29.136719 27.546875 L 30.148438 27.175781 L 29.0625 28.429688 L 28.84375 31.007812 C 31.5 28.890625 32.390625 26.726562 31.515625 24.515625 L 32.90625 26.496094 L 33.535156 25.125 L 33.390625 27.179688 L 34.082031 28.167969 L 34.40625 28.625 L 35.34375 29.953125 C 36.113281 27.910156 35.742188 25.824219 34.230469 23.695312 L 35.820312 25.453125 L 38.195312 25.617188 C 36.375 22.273438 34.246094 21.070312 31.820312 22.007812 C 32.457031 21.554688 33.15625 21.261719 33.875 21.140625 L 34.40625 21.082031 C 34.769531 21.0625 35.136719 21.089844 35.503906 21.160156 C 34.019531 17.3125 32.433594 17.332031 30.753906 21.210938 C 30.996094 18.992188 30.269531 17.015625 28.574219 15.28125 C 28.46875 16.101562 28.421875 16.855469 28.429688 17.535156 L 29.117188 18.351562 L 28.453125 18.113281 C 28.523438 19.121094 28.734375 19.957031 29.09375 20.613281 C 27.878906 18.839844 25.773438 18.289062 22.769531 18.960938 C 23.09375 19.277344 23.433594 19.617188 23.78125 19.890625 L 24.484375 20.371094 C 25.242188 20.804688 26.046875 21.019531 26.90625 21.019531 C 25.011719 21.433594 23.84375 22.28125 23.402344 23.5625 C 23.679688 23.695312 23.980469 23.859375 24.300781 24.054688 C 24.851562 24.070312 25.410156 24.078125 25.960938 24.074219 L 27.078125 22.90625 L 26.570312 24.0625 C 27.78125 24.019531 28.507812 23.890625 28.753906 23.671875 C 25.960938 26.730469 24.28125 31.824219 23.839844 36.257812 Z M 23.84375 36.257812 " fill-opacity="1" fill-rule="evenodd"/><g clip-path="url(#f087337756)"><path fill="#91d8f7" d="M 38.78125 41.59375 C 25.914062 46.617188 19.320312 33.472656 4.363281 41.410156 C 19.558594 36.269531 26.496094 47.96875 38.78125 41.59375 Z M 38.78125 41.59375 " fill-opacity="1" fill-rule="evenodd"/></g><path fill="#000000" d="M 19.046875 12.332031 C 18.90625 12.511719 18.769531 12.699219 18.640625 12.898438 C 18.785156 12.722656 18.917969 12.53125 19.046875 12.332031 Z M 25.464844 36.835938 C 24.886719 37.269531 24.382812 37.527344 23.945312 37.609375 C 23.632812 37.664062 23.359375 37.632812 23.121094 37.507812 C 23.425781 30.5 21.945312 23.066406 18.175781 18.113281 L 18.257812 22.945312 L 16.753906 22.273438 L 18.285156 24.308594 L 18.355469 28.277344 C 14.507812 24.753906 13.367188 21.347656 14.933594 18.058594 L 12.601562 20.941406 L 11.78125 18.78125 L 11.792969 21.941406 L 10.628906 23.378906 L 10.085938 24.046875 L 8.515625 25.988281 C 7.546875 22.777344 8.328125 19.621094 10.863281 16.519531 L 8.246094 19.046875 L 4.59375 19.046875 C 7.730469 14.113281 11.109375 12.496094 14.722656 14.1875 C 13.796875 13.429688 12.757812 12.90625 11.667969 12.644531 L 10.863281 12.5 C 10.304688 12.433594 9.738281 12.433594 9.175781 12.503906 C 11.84375 6.769531 14.265625 6.960938 16.441406 13.078125 C 16.300781 9.652344 17.621094 6.703125 20.390625 4.222656 C 20.46875 5.492188 20.460938 6.648438 20.375 7.691406 L 19.242188 8.867188 L 20.28125 8.578125 C 20.070312 10.113281 19.660156 11.367188 19.046875 12.335938 C 21.085938 9.746094 24.367188 9.121094 28.894531 10.460938 C 28.367188 10.917969 27.8125 11.398438 27.25 11.785156 L 26.121094 12.445312 C 24.921875 13.03125 23.664062 13.277344 22.351562 13.1875 C 25.207031 14.019531 26.90625 15.4375 27.449219 17.449219 C 27.011719 17.621094 26.539062 17.839844 26.027344 18.105469 C 25.175781 18.070312 24.328125 18.027344 23.480469 17.964844 L 21.890625 16.058594 L 22.546875 17.878906 C 20.699219 17.691406 19.597656 17.417969 19.246094 17.058594 C 23.207031 22.03125 25.25 30 25.46875 36.835938 Z M 25.464844 36.835938 " fill-opacity="1" fill-rule="evenodd"/><g clip-path="url(#b538a158d9)"><path fill="#ffcc29" d="M 4.304688 25.015625 C 4.304688 23.132812 4.582031 21.3125 5.097656 19.597656 L 3.589844 19.597656 L 4.128906 18.75 C 4.945312 17.464844 5.964844 16.101562 7.1875 15.027344 C 7.601562 14.367188 8.058594 13.734375 8.554688 13.132812 L 8.257812 13.171875 L 8.675781 12.269531 C 9.390625 10.730469 10.917969 7.707031 12.960938 7.792969 C 13.492188 7.8125 13.972656 8.042969 14.402344 8.398438 C 15.308594 7.929688 16.261719 7.53125 17.25 7.214844 C 17.960938 5.933594 18.914062 4.804688 20.027344 3.808594 L 20.179688 3.675781 C 10.605469 5.015625 3.242188 13.261719 3.242188 23.234375 C 3.242188 27.9375 4.878906 32.257812 7.613281 35.648438 C 5.527344 32.628906 4.304688 28.964844 4.304688 25.015625 Z M 4.304688 25.015625 " fill-opacity="1" fill-rule="evenodd"/></g><g clip-path="url(#a1965c0092)"><path fill="#ffcc29" d="M 22.929688 6.332031 C 33.214844 6.332031 41.550781 14.699219 41.550781 25.015625 C 41.550781 28.96875 40.332031 32.628906 38.246094 35.648438 C 40.980469 32.257812 42.617188 27.941406 42.617188 23.238281 C 42.617188 12.328125 33.800781 3.484375 22.929688 3.484375 C 22.246094 3.484375 21.570312 3.519531 20.90625 3.585938 L 20.941406 4.191406 C 20.984375 4.933594 21.003906 5.683594 20.988281 6.433594 C 21.625 6.367188 22.273438 6.332031 22.929688 6.332031 Z M 22.929688 6.332031 " fill-opacity="1" fill-rule="evenodd"/></g><g clip-path="url(#b05fd14ab8)"><path fill="#0098da" d="M 25.738281 35.054688 C 22.628906 34.390625 19.4375 33.933594 16.164062 33.691406 C 11.980469 33.550781 7.496094 34.890625 1.835938 39.738281 C 19.378906 29.375 31.757812 51.097656 49.886719 33.796875 C 38.832031 39.203125 36.441406 37.40625 26.066406 35.128906 C 25.957031 35.105469 25.847656 35.078125 25.738281 35.058594 Z M 25.738281 35.054688 " fill-opacity="1" fill-rule="evenodd"/></g><g fill="#000000" fill-opacity="1"><g transform="translate(42.509951, 27.89378)"><g><path d="M 3.8125 -1.140625 C 4.59375 -1.140625 5.109375 -1.203125 5.359375 -1.328125 C 5.617188 -1.460938 5.785156 -1.597656 5.859375 -1.734375 C 5.929688 -1.878906 5.96875 -2.054688 5.96875 -2.265625 L 5.96875 -14.34375 L 3.84375 -14.34375 C 2.707031 -14.34375 2.054688 -13.738281 1.890625 -12.53125 L 1.59375 -10.4375 L 0.078125 -10.4375 L 0.546875 -15.546875 L 13.734375 -15.546875 L 14.1875 -10.4375 L 12.6875 -10.4375 L 12.390625 -12.53125 C 12.316406 -13.09375 12.164062 -13.492188 11.9375 -13.734375 C 11.539062 -14.140625 11.039062 -14.34375 10.4375 -14.34375 L 8.3125 -14.34375 L 8.3125 -2.265625 C 8.3125 -1.835938 8.453125 -1.539062 8.734375 -1.375 C 9.023438 -1.21875 9.601562 -1.140625 10.46875 -1.140625 L 10.46875 0 L 3.8125 0 Z M 3.8125 -1.140625 "/></g></g></g><g fill="#000000" fill-opacity="1"><g transform="translate(59.924812, 27.89378)"><g><path d="M 13.328125 -1.28125 C 13.867188 -1.28125 14.140625 -1.90625 14.140625 -3.15625 L 15.140625 -3.15625 C 15.210938 -2.90625 15.25 -2.6875 15.25 -2.5 C 15.25 -2.3125 15.242188 -2.109375 15.234375 -1.890625 C 15.234375 -1.671875 15.15625 -1.382812 15 -1.03125 C 14.613281 -0.207031 13.898438 0.203125 12.859375 0.203125 C 11.816406 0.203125 11.082031 -0.0546875 10.65625 -0.578125 C 10.226562 -1.109375 9.925781 -1.644531 9.75 -2.1875 C 9.570312 -2.726562 9.425781 -3.203125 9.3125 -3.609375 C 8.988281 -4.722656 8.734375 -5.445312 8.546875 -5.78125 C 8.191406 -6.4375 7.710938 -6.765625 7.109375 -6.765625 L 4.828125 -6.765625 L 4.828125 -2.796875 C 4.828125 -2.441406 4.84375 -2.15625 4.875 -1.9375 C 4.90625 -1.726562 5.023438 -1.539062 5.234375 -1.375 C 5.453125 -1.21875 6.097656 -1.140625 7.171875 -1.140625 L 7.171875 0 L 0.75 0 L 0.75 -1.140625 C 1.476562 -1.140625 1.929688 -1.203125 2.109375 -1.328125 C 2.296875 -1.460938 2.40625 -1.597656 2.4375 -1.734375 C 2.46875 -1.878906 2.484375 -2.054688 2.484375 -2.265625 L 2.484375 -13.28125 C 2.484375 -13.726562 2.410156 -14.007812 2.265625 -14.125 C 1.984375 -14.3125 1.476562 -14.40625 0.75 -14.40625 L 0.75 -15.546875 L 7.109375 -15.546875 C 10.515625 -15.546875 12.40625 -14.5 12.78125 -12.40625 C 12.84375 -12.050781 12.875 -11.644531 12.875 -11.1875 C 12.875 -10.1875 12.5625 -9.335938 11.9375 -8.640625 C 11.3125 -7.941406 10.460938 -7.4375 9.390625 -7.125 C 10.316406 -6.84375 11.007812 -6.097656 11.46875 -4.890625 C 11.625 -4.492188 11.789062 -3.984375 11.96875 -3.359375 C 12.144531 -2.734375 12.289062 -2.304688 12.40625 -2.078125 C 12.644531 -1.546875 12.953125 -1.28125 13.328125 -1.28125 Z M 7.140625 -7.796875 C 8.316406 -7.796875 9.148438 -8.078125 9.640625 -8.640625 C 10.128906 -9.210938 10.375 -10.035156 10.375 -11.109375 C 10.375 -12.191406 10.085938 -13.007812 9.515625 -13.5625 C 8.941406 -14.125 7.9375 -14.40625 6.5 -14.40625 L 4.828125 -14.40625 L 4.828125 -7.796875 Z M 7.140625 -7.796875 "/></g></g></g><g fill="#000000" fill-opacity="1"><g transform="translate(78.355418, 27.89378)"><g><path d="M 0.8125 -7.78125 C 0.8125 -9.09375 1.007812 -10.257812 1.40625 -11.28125 C 1.8125 -12.300781 2.351562 -13.140625 3.03125 -13.796875 C 4.363281 -15.109375 6.066406 -15.765625 8.140625 -15.765625 C 10.210938 -15.765625 11.914062 -15.117188 13.25 -13.828125 C 14.726562 -12.410156 15.46875 -10.410156 15.46875 -7.828125 C 15.46875 -5.242188 14.785156 -3.257812 13.421875 -1.875 C 12.066406 -0.488281 10.304688 0.203125 8.140625 0.203125 C 5.972656 0.203125 4.207031 -0.492188 2.84375 -1.890625 C 1.488281 -3.296875 0.8125 -5.257812 0.8125 -7.78125 Z M 8.171875 -1.140625 C 9.378906 -1.140625 10.394531 -1.585938 11.21875 -2.484375 C 12.257812 -3.617188 12.78125 -5.34375 12.78125 -7.65625 C 12.78125 -9.976562 12.335938 -11.679688 11.453125 -12.765625 C 10.566406 -13.859375 9.453125 -14.40625 8.109375 -14.40625 C 6.773438 -14.40625 5.671875 -13.859375 4.796875 -12.765625 C 3.929688 -11.679688 3.5 -10.050781 3.5 -7.875 C 3.5 -4.75 4.359375 -2.6875 6.078125 -1.6875 C 6.703125 -1.320312 7.398438 -1.140625 8.171875 -1.140625 Z M 8.171875 -1.140625 "/></g></g></g><g fill="#000000" fill-opacity="1"><g transform="translate(97.770673, 27.89378)"><g><path d="M 0.75 -1.140625 C 1.476562 -1.140625 1.929688 -1.203125 2.109375 -1.328125 C 2.296875 -1.460938 2.40625 -1.597656 2.4375 -1.734375 C 2.46875 -1.878906 2.484375 -2.054688 2.484375 -2.265625 L 2.484375 -13.28125 C 2.484375 -13.726562 2.410156 -14.007812 2.265625 -14.125 C 1.984375 -14.3125 1.476562 -14.40625 0.75 -14.40625 L 0.75 -15.546875 L 6.421875 -15.546875 C 9.253906 -15.546875 11.09375 -14.757812 11.9375 -13.1875 C 12.28125 -12.5625 12.453125 -11.804688 12.453125 -10.921875 C 12.453125 -10.046875 12.273438 -9.285156 11.921875 -8.640625 C 10.960938 -6.921875 9.046875 -6.0625 6.171875 -6.0625 C 6.046875 -6.0625 5.914062 -6.0625 5.78125 -6.0625 L 4.828125 -6.0625 L 4.828125 -2.796875 C 4.828125 -2.441406 4.84375 -2.15625 4.875 -1.9375 C 4.914062 -1.726562 5.050781 -1.539062 5.28125 -1.375 C 5.519531 -1.21875 6.25 -1.140625 7.46875 -1.140625 L 7.46875 0 L 0.75 0 Z M 5.96875 -7.109375 C 7.257812 -7.109375 8.242188 -7.425781 8.921875 -8.0625 C 9.609375 -8.695312 9.953125 -9.660156 9.953125 -10.953125 C 9.953125 -12.535156 9.296875 -13.59375 7.984375 -14.125 C 7.515625 -14.3125 6.941406 -14.40625 6.265625 -14.40625 L 4.828125 -14.40625 L 4.828125 -7.109375 Z M 5.96875 -7.109375 "/></g></g></g><g fill="#000000" fill-opacity="1"><g transform="translate(114.076501, 27.89378)"><g><path d="M 0.84375 -1.140625 C 1.5 -1.140625 1.925781 -1.203125 2.125 -1.328125 C 2.320312 -1.460938 2.445312 -1.597656 2.5 -1.734375 C 2.5625 -1.878906 2.59375 -2.054688 2.59375 -2.265625 L 2.578125 -13.28125 C 2.578125 -13.726562 2.5 -14.007812 2.34375 -14.125 C 2.070312 -14.3125 1.570312 -14.40625 0.84375 -14.40625 L 0.84375 -15.546875 L 6.671875 -15.546875 L 6.671875 -14.40625 C 6.015625 -14.40625 5.582031 -14.34375 5.375 -14.21875 C 5.175781 -14.09375 5.050781 -13.957031 5 -13.8125 C 4.945312 -13.664062 4.921875 -13.488281 4.921875 -13.28125 L 4.921875 -2.265625 C 4.921875 -1.816406 5 -1.539062 5.15625 -1.4375 C 5.425781 -1.238281 5.929688 -1.140625 6.671875 -1.140625 L 6.671875 0 L 0.84375 0 Z M 0.84375 -1.140625 "/></g></g></g><g fill="#000000" fill-opacity="1"><g transform="translate(124.702449, 27.89378)"><g><path d="M 8.28125 -1.140625 C 10.457031 -1.140625 11.832031 -2.140625 12.40625 -4.140625 L 13.890625 -4.140625 C 13.890625 -3.609375 13.742188 -3.078125 13.453125 -2.546875 C 13.160156 -2.023438 12.753906 -1.5625 12.234375 -1.15625 C 11.078125 -0.25 9.582031 0.203125 7.75 0.203125 C 5.925781 0.203125 4.363281 -0.40625 3.0625 -1.625 C 1.5625 -3.019531 0.8125 -5.070312 0.8125 -7.78125 C 0.8125 -9.9375 1.390625 -11.753906 2.546875 -13.234375 C 3.367188 -14.285156 4.46875 -15.019531 5.84375 -15.4375 C 6.539062 -15.65625 7.3125 -15.765625 8.15625 -15.765625 C 9.820312 -15.765625 11.191406 -15.378906 12.265625 -14.609375 C 13.335938 -13.847656 13.875 -12.890625 13.875 -11.734375 C 13.875 -10.867188 13.535156 -10.289062 12.859375 -10 C 12.660156 -9.90625 12.441406 -9.859375 12.203125 -9.859375 C 11.472656 -9.859375 10.984375 -10.164062 10.734375 -10.78125 C 10.660156 -10.976562 10.625 -11.207031 10.625 -11.46875 C 10.625 -11.738281 10.695312 -12.003906 10.84375 -12.265625 C 11 -12.523438 11.203125 -12.722656 11.453125 -12.859375 C 10.898438 -13.929688 9.898438 -14.46875 8.453125 -14.46875 C 7.003906 -14.46875 5.828125 -13.914062 4.921875 -12.8125 C 4.015625 -11.71875 3.5625 -10.070312 3.5625 -7.875 C 3.5625 -5.6875 4.019531 -4.015625 4.9375 -2.859375 C 5.863281 -1.710938 6.976562 -1.140625 8.28125 -1.140625 Z M 8.28125 -1.140625 "/></g></g></g><g fill="#000000" fill-opacity="1"><g transform="translate(143.298889, 27.89378)"><g><path d="M -0.109375 -1.140625 C 0.460938 -1.140625 0.894531 -1.226562 1.1875 -1.40625 C 1.476562 -1.582031 1.703125 -1.867188 1.859375 -2.265625 L 7.46875 -15.546875 L 9.234375 -15.546875 L 14.359375 -2.265625 C 14.546875 -1.828125 14.753906 -1.53125 14.984375 -1.375 C 15.210938 -1.21875 15.65625 -1.140625 16.3125 -1.140625 L 16.3125 0 L 9.921875 0 L 9.921875 -1.140625 C 10.835938 -1.140625 11.378906 -1.203125 11.546875 -1.328125 C 11.710938 -1.453125 11.789062 -1.585938 11.78125 -1.734375 C 11.769531 -1.878906 11.722656 -2.054688 11.640625 -2.265625 L 10.703125 -4.875 L 4.6875 -4.875 L 3.625 -2.265625 C 3.457031 -1.859375 3.5 -1.566406 3.75 -1.390625 C 4.007812 -1.222656 4.613281 -1.140625 5.5625 -1.140625 L 5.5625 0 L -0.109375 0 Z M 10.3125 -6.015625 L 7.90625 -12.734375 L 5.15625 -6.015625 Z M 10.3125 -6.015625 "/></g></g></g><g fill="#000000" fill-opacity="1"><g transform="translate(162.828156, 27.89378)"><g><path d="M 0.75 -1.140625 C 1.40625 -1.140625 1.832031 -1.203125 2.03125 -1.328125 C 2.226562 -1.460938 2.351562 -1.597656 2.40625 -1.734375 C 2.46875 -1.878906 2.5 -2.054688 2.5 -2.265625 L 2.484375 -13.28125 C 2.484375 -13.726562 2.410156 -14.007812 2.265625 -14.125 C 1.984375 -14.3125 1.476562 -14.40625 0.75 -14.40625 L 0.75 -15.546875 L 6.578125 -15.546875 L 6.578125 -14.40625 C 5.921875 -14.40625 5.492188 -14.34375 5.296875 -14.21875 C 5.097656 -14.09375 4.96875 -13.957031 4.90625 -13.8125 C 4.851562 -13.664062 4.828125 -13.488281 4.828125 -13.28125 L 4.828125 -1.203125 L 8.40625 -1.203125 C 9.507812 -1.203125 10.269531 -1.804688 10.6875 -3.015625 L 11.109375 -4.1875 L 12.53125 -4.171875 L 11.8125 0 L 0.75 0 Z M 0.75 -1.140625 "/></g></g></g><g fill="#545454" fill-opacity="1"><g transform="translate(70.824288, 38.848901)"><g><path d="M 2.546875 -4.203125 C 2.546875 -4.242188 2.554688 -4.273438 2.578125 -4.296875 C 2.597656 -4.316406 2.625 -4.328125 2.65625 -4.328125 L 3.453125 -4.328125 C 3.484375 -4.328125 3.507812 -4.316406 3.53125 -4.296875 C 3.550781 -4.273438 3.5625 -4.242188 3.5625 -4.203125 L 3.5625 -0.109375 C 3.5625 -0.078125 3.550781 -0.0507812 3.53125 -0.03125 C 3.507812 -0.0078125 3.484375 0 3.453125 0 L 2.65625 0 C 2.625 0 2.597656 -0.0078125 2.578125 -0.03125 C 2.554688 -0.0507812 2.546875 -0.078125 2.546875 -0.109375 L 2.546875 -1.703125 C 2.546875 -1.734375 2.53125 -1.75 2.5 -1.75 L 1.375 -1.75 C 1.34375 -1.75 1.328125 -1.734375 1.328125 -1.703125 L 1.328125 -0.109375 C 1.328125 -0.078125 1.316406 -0.0507812 1.296875 -0.03125 C 1.273438 -0.0078125 1.25 0 1.21875 0 L 0.40625 0 C 0.375 0 0.347656 -0.0078125 0.328125 -0.03125 C 0.304688 -0.0507812 0.296875 -0.078125 0.296875 -0.109375 L 0.296875 -4.203125 C 0.296875 -4.242188 0.304688 -4.273438 0.328125 -4.296875 C 0.347656 -4.316406 0.375 -4.328125 0.40625 -4.328125 L 1.21875 -4.328125 C 1.25 -4.328125 1.273438 -4.316406 1.296875 -4.296875 C 1.316406 -4.273438 1.328125 -4.242188 1.328125 -4.203125 L 1.328125 -2.671875 C 1.328125 -2.640625 1.34375 -2.625 1.375 -2.625 L 2.5 -2.625 C 2.53125 -2.625 2.546875 -2.640625 2.546875 -2.671875 Z M 2.546875 -4.203125 "/></g></g></g><g fill="#545454" fill-opacity="1"><g transform="translate(76.900789, 38.848901)"><g><path d="M 1.90625 0.0625 C 1.570312 0.0625 1.28125 0 1.03125 -0.125 C 0.78125 -0.257812 0.582031 -0.445312 0.4375 -0.6875 C 0.300781 -0.9375 0.234375 -1.222656 0.234375 -1.546875 L 0.234375 -2.78125 C 0.234375 -3.09375 0.300781 -3.367188 0.4375 -3.609375 C 0.582031 -3.847656 0.78125 -4.035156 1.03125 -4.171875 C 1.28125 -4.304688 1.570312 -4.375 1.90625 -4.375 C 2.238281 -4.375 2.53125 -4.304688 2.78125 -4.171875 C 3.039062 -4.035156 3.238281 -3.847656 3.375 -3.609375 C 3.519531 -3.367188 3.59375 -3.09375 3.59375 -2.78125 L 3.59375 -1.546875 C 3.59375 -1.222656 3.519531 -0.9375 3.375 -0.6875 C 3.238281 -0.445312 3.039062 -0.257812 2.78125 -0.125 C 2.53125 0 2.238281 0.0625 1.90625 0.0625 Z M 1.90625 -0.8125 C 2.101562 -0.8125 2.265625 -0.875 2.390625 -1 C 2.515625 -1.125 2.578125 -1.296875 2.578125 -1.515625 L 2.578125 -2.796875 C 2.578125 -3.003906 2.515625 -3.171875 2.390625 -3.296875 C 2.265625 -3.429688 2.101562 -3.5 1.90625 -3.5 C 1.71875 -3.5 1.5625 -3.429688 1.4375 -3.296875 C 1.320312 -3.171875 1.265625 -3.003906 1.265625 -2.796875 L 1.265625 -1.515625 C 1.265625 -1.296875 1.320312 -1.125 1.4375 -1 C 1.5625 -0.875 1.71875 -0.8125 1.90625 -0.8125 Z M 1.90625 -0.8125 "/></g></g></g><g fill="#545454" fill-opacity="1"><g transform="translate(82.989637, 38.848901)"><g><path d="M 3.390625 -4.328125 C 3.421875 -4.328125 3.445312 -4.316406 3.46875 -4.296875 C 3.488281 -4.273438 3.5 -4.242188 3.5 -4.203125 L 3.5 -3.546875 C 3.5 -3.515625 3.488281 -3.488281 3.46875 -3.46875 C 3.445312 -3.445312 3.421875 -3.4375 3.390625 -3.4375 L 2.359375 -3.4375 C 2.328125 -3.4375 2.3125 -3.421875 2.3125 -3.390625 L 2.3125 -0.109375 C 2.3125 -0.078125 2.300781 -0.0507812 2.28125 -0.03125 C 2.257812 -0.0078125 2.234375 0 2.203125 0 L 1.40625 0 C 1.375 0 1.347656 -0.0078125 1.328125 -0.03125 C 1.304688 -0.0507812 1.296875 -0.078125 1.296875 -0.109375 L 1.296875 -3.390625 C 1.296875 -3.421875 1.28125 -3.4375 1.25 -3.4375 L 0.25 -3.4375 C 0.21875 -3.4375 0.191406 -3.445312 0.171875 -3.46875 C 0.148438 -3.488281 0.140625 -3.515625 0.140625 -3.546875 L 0.140625 -4.203125 C 0.140625 -4.242188 0.148438 -4.273438 0.171875 -4.296875 C 0.191406 -4.316406 0.21875 -4.328125 0.25 -4.328125 Z M 3.390625 -4.328125 "/></g></g></g><g fill="#545454" fill-opacity="1"><g transform="translate(88.887139, 38.848901)"><g><path d="M 3.375 -3.5625 C 3.375 -3.519531 3.363281 -3.488281 3.34375 -3.46875 C 3.320312 -3.445312 3.296875 -3.4375 3.265625 -3.4375 L 1.375 -3.4375 C 1.34375 -3.4375 1.328125 -3.425781 1.328125 -3.40625 L 1.328125 -2.671875 C 1.328125 -2.640625 1.34375 -2.625 1.375 -2.625 L 2.5625 -2.625 C 2.59375 -2.625 2.617188 -2.613281 2.640625 -2.59375 C 2.660156 -2.570312 2.671875 -2.546875 2.671875 -2.515625 L 2.671875 -1.859375 C 2.671875 -1.828125 2.660156 -1.800781 2.640625 -1.78125 C 2.617188 -1.757812 2.59375 -1.75 2.5625 -1.75 L 1.375 -1.75 C 1.34375 -1.75 1.328125 -1.734375 1.328125 -1.703125 L 1.328125 -0.921875 C 1.328125 -0.890625 1.34375 -0.875 1.375 -0.875 L 3.265625 -0.875 C 3.296875 -0.875 3.320312 -0.863281 3.34375 -0.84375 C 3.363281 -0.820312 3.375 -0.796875 3.375 -0.765625 L 3.375 -0.109375 C 3.375 -0.078125 3.363281 -0.0507812 3.34375 -0.03125 C 3.320312 -0.0078125 3.296875 0 3.265625 0 L 0.40625 0 C 0.375 0 0.347656 -0.0078125 0.328125 -0.03125 C 0.304688 -0.0507812 0.296875 -0.078125 0.296875 -0.109375 L 0.296875 -4.203125 C 0.296875 -4.242188 0.304688 -4.273438 0.328125 -4.296875 C 0.347656 -4.316406 0.375 -4.328125 0.40625 -4.328125 L 3.265625 -4.328125 C 3.296875 -4.328125 3.320312 -4.316406 3.34375 -4.296875 C 3.363281 -4.273438 3.375 -4.242188 3.375 -4.203125 Z M 3.375 -3.5625 "/></g></g></g><g fill="#545454" fill-opacity="1"><g transform="translate(94.704399, 38.848901)"><g><path d="M 0.40625 0 C 0.375 0 0.347656 -0.0078125 0.328125 -0.03125 C 0.304688 -0.0507812 0.296875 -0.078125 0.296875 -0.109375 L 0.296875 -4.203125 C 0.296875 -4.242188 0.304688 -4.273438 0.328125 -4.296875 C 0.347656 -4.316406 0.375 -4.328125 0.40625 -4.328125 L 1.21875 -4.328125 C 1.25 -4.328125 1.273438 -4.316406 1.296875 -4.296875 C 1.316406 -4.273438 1.328125 -4.242188 1.328125 -4.203125 L 1.328125 -0.921875 C 1.328125 -0.890625 1.34375 -0.875 1.375 -0.875 L 3.296875 -0.875 C 3.328125 -0.875 3.351562 -0.863281 3.375 -0.84375 C 3.394531 -0.820312 3.40625 -0.796875 3.40625 -0.765625 L 3.40625 -0.109375 C 3.40625 -0.078125 3.394531 -0.0507812 3.375 -0.03125 C 3.351562 -0.0078125 3.328125 0 3.296875 0 Z M 0.40625 0 "/></g></g></g><g fill="#545454" fill-opacity="1"><g transform="translate(100.496968, 38.848901)"><g/></g></g><g fill="#545454" fill-opacity="1"><g transform="translate(103.987251, 38.848901)"><g><path d="M 4.109375 -0.140625 C 4.140625 -0.109375 4.15625 -0.0820312 4.15625 -0.0625 C 4.15625 -0.0195312 4.125 0 4.0625 0 L 3.171875 0 C 3.117188 0 3.070312 -0.0195312 3.03125 -0.0625 L 2.84375 -0.25 C 2.820312 -0.269531 2.804688 -0.273438 2.796875 -0.265625 C 2.398438 -0.0546875 1.992188 0.046875 1.578125 0.046875 C 1.179688 0.046875 0.851562 -0.0390625 0.59375 -0.21875 C 0.332031 -0.40625 0.203125 -0.6875 0.203125 -1.0625 C 0.203125 -1.332031 0.265625 -1.5625 0.390625 -1.75 C 0.523438 -1.9375 0.710938 -2.097656 0.953125 -2.234375 C 0.984375 -2.253906 0.988281 -2.273438 0.96875 -2.296875 C 0.769531 -2.523438 0.640625 -2.695312 0.578125 -2.8125 C 0.523438 -2.925781 0.5 -3.046875 0.5 -3.171875 C 0.5 -3.410156 0.550781 -3.617188 0.65625 -3.796875 C 0.769531 -3.984375 0.925781 -4.125 1.125 -4.21875 C 1.332031 -4.320312 1.566406 -4.375 1.828125 -4.375 C 2.097656 -4.375 2.335938 -4.320312 2.546875 -4.21875 C 2.765625 -4.113281 2.929688 -3.972656 3.046875 -3.796875 C 3.171875 -3.617188 3.234375 -3.410156 3.234375 -3.171875 C 3.234375 -2.921875 3.160156 -2.707031 3.015625 -2.53125 C 2.878906 -2.351562 2.6875 -2.195312 2.4375 -2.0625 C 2.414062 -2.039062 2.414062 -2.019531 2.4375 -2 L 2.53125 -1.890625 L 2.875 -1.53125 C 2.894531 -1.507812 2.914062 -1.507812 2.9375 -1.53125 C 3.09375 -1.6875 3.210938 -1.835938 3.296875 -1.984375 C 3.316406 -2.015625 3.34375 -2.03125 3.375 -2.03125 C 3.394531 -2.03125 3.421875 -2.023438 3.453125 -2.015625 L 4.03125 -1.6875 C 4.070312 -1.65625 4.09375 -1.625 4.09375 -1.59375 C 4.09375 -1.570312 4.085938 -1.550781 4.078125 -1.53125 C 3.910156 -1.269531 3.734375 -1.039062 3.546875 -0.84375 C 3.523438 -0.832031 3.523438 -0.8125 3.546875 -0.78125 Z M 1.859375 -3.4375 C 1.753906 -3.4375 1.671875 -3.410156 1.609375 -3.359375 C 1.554688 -3.316406 1.53125 -3.253906 1.53125 -3.171875 C 1.53125 -3.128906 1.546875 -3.078125 1.578125 -3.015625 C 1.609375 -2.960938 1.679688 -2.867188 1.796875 -2.734375 C 1.816406 -2.710938 1.835938 -2.707031 1.859375 -2.71875 C 2.085938 -2.851562 2.203125 -3 2.203125 -3.15625 C 2.203125 -3.25 2.171875 -3.316406 2.109375 -3.359375 C 2.046875 -3.410156 1.960938 -3.4375 1.859375 -3.4375 Z M 1.765625 -0.8125 C 1.890625 -0.84375 2.015625 -0.882812 2.140625 -0.9375 C 2.160156 -0.957031 2.160156 -0.976562 2.140625 -1 L 1.890625 -1.28125 L 1.609375 -1.578125 C 1.585938 -1.597656 1.570312 -1.601562 1.5625 -1.59375 C 1.332031 -1.4375 1.21875 -1.273438 1.21875 -1.109375 C 1.21875 -1.015625 1.253906 -0.9375 1.328125 -0.875 C 1.398438 -0.820312 1.492188 -0.796875 1.609375 -0.796875 C 1.671875 -0.796875 1.722656 -0.800781 1.765625 -0.8125 Z M 1.765625 -0.8125 "/></g></g></g><g fill="#545454" fill-opacity="1"><g transform="translate(110.687161, 38.848901)"><g/></g></g><g fill="#545454" fill-opacity="1"><g transform="translate(114.177443, 38.848901)"><g><path d="M 2.640625 0 C 2.585938 0 2.546875 -0.03125 2.515625 -0.09375 L 1.796875 -1.6875 C 1.796875 -1.707031 1.78125 -1.71875 1.75 -1.71875 L 1.375 -1.71875 C 1.34375 -1.71875 1.328125 -1.703125 1.328125 -1.671875 L 1.328125 -0.109375 C 1.328125 -0.078125 1.316406 -0.0507812 1.296875 -0.03125 C 1.273438 -0.0078125 1.25 0 1.21875 0 L 0.40625 0 C 0.375 0 0.347656 -0.0078125 0.328125 -0.03125 C 0.304688 -0.0507812 0.296875 -0.078125 0.296875 -0.109375 L 0.296875 -4.203125 C 0.296875 -4.242188 0.304688 -4.273438 0.328125 -4.296875 C 0.347656 -4.316406 0.375 -4.328125 0.40625 -4.328125 L 2.203125 -4.328125 C 2.472656 -4.328125 2.710938 -4.269531 2.921875 -4.15625 C 3.128906 -4.039062 3.289062 -3.878906 3.40625 -3.671875 C 3.519531 -3.472656 3.578125 -3.242188 3.578125 -2.984375 C 3.578125 -2.710938 3.507812 -2.472656 3.375 -2.265625 C 3.238281 -2.066406 3.050781 -1.921875 2.8125 -1.828125 C 2.78125 -1.816406 2.773438 -1.796875 2.796875 -1.765625 L 3.578125 -0.125 L 3.59375 -0.078125 C 3.59375 -0.0234375 3.5625 0 3.5 0 Z M 1.375 -3.4375 C 1.34375 -3.4375 1.328125 -3.425781 1.328125 -3.40625 L 1.328125 -2.546875 C 1.328125 -2.515625 1.34375 -2.5 1.375 -2.5 L 2.046875 -2.5 C 2.191406 -2.5 2.3125 -2.539062 2.40625 -2.625 C 2.507812 -2.71875 2.5625 -2.832031 2.5625 -2.96875 C 2.5625 -3.113281 2.507812 -3.226562 2.40625 -3.3125 C 2.3125 -3.394531 2.191406 -3.4375 2.046875 -3.4375 Z M 1.375 -3.4375 "/></g></g></g><g fill="#545454" fill-opacity="1"><g transform="translate(120.223082, 38.848901)"><g><path d="M 3.375 -3.5625 C 3.375 -3.519531 3.363281 -3.488281 3.34375 -3.46875 C 3.320312 -3.445312 3.296875 -3.4375 3.265625 -3.4375 L 1.375 -3.4375 C 1.34375 -3.4375 1.328125 -3.425781 1.328125 -3.40625 L 1.328125 -2.671875 C 1.328125 -2.640625 1.34375 -2.625 1.375 -2.625 L 2.5625 -2.625 C 2.59375 -2.625 2.617188 -2.613281 2.640625 -2.59375 C 2.660156 -2.570312 2.671875 -2.546875 2.671875 -2.515625 L 2.671875 -1.859375 C 2.671875 -1.828125 2.660156 -1.800781 2.640625 -1.78125 C 2.617188 -1.757812 2.59375 -1.75 2.5625 -1.75 L 1.375 -1.75 C 1.34375 -1.75 1.328125 -1.734375 1.328125 -1.703125 L 1.328125 -0.921875 C 1.328125 -0.890625 1.34375 -0.875 1.375 -0.875 L 3.265625 -0.875 C 3.296875 -0.875 3.320312 -0.863281 3.34375 -0.84375 C 3.363281 -0.820312 3.375 -0.796875 3.375 -0.765625 L 3.375 -0.109375 C 3.375 -0.078125 3.363281 -0.0507812 3.34375 -0.03125 C 3.320312 -0.0078125 3.296875 0 3.265625 0 L 0.40625 0 C 0.375 0 0.347656 -0.0078125 0.328125 -0.03125 C 0.304688 -0.0507812 0.296875 -0.078125 0.296875 -0.109375 L 0.296875 -4.203125 C 0.296875 -4.242188 0.304688 -4.273438 0.328125 -4.296875 C 0.347656 -4.316406 0.375 -4.328125 0.40625 -4.328125 L 3.265625 -4.328125 C 3.296875 -4.328125 3.320312 -4.316406 3.34375 -4.296875 C 3.363281 -4.273438 3.375 -4.242188 3.375 -4.203125 Z M 3.375 -3.5625 "/></g></g></g><g fill="#545454" fill-opacity="1"><g transform="translate(126.040344, 38.848901)"><g><path d="M 1.84375 0.046875 C 1.519531 0.046875 1.234375 -0.00390625 0.984375 -0.109375 C 0.734375 -0.222656 0.539062 -0.378906 0.40625 -0.578125 C 0.269531 -0.785156 0.203125 -1.023438 0.203125 -1.296875 L 0.203125 -1.375 C 0.203125 -1.40625 0.210938 -1.429688 0.234375 -1.453125 C 0.253906 -1.472656 0.28125 -1.484375 0.3125 -1.484375 L 1.09375 -1.484375 C 1.125 -1.484375 1.148438 -1.472656 1.171875 -1.453125 C 1.191406 -1.441406 1.203125 -1.425781 1.203125 -1.40625 L 1.203125 -1.328125 C 1.203125 -1.203125 1.269531 -1.085938 1.40625 -0.984375 C 1.539062 -0.878906 1.710938 -0.828125 1.921875 -0.828125 C 2.097656 -0.828125 2.226562 -0.863281 2.3125 -0.9375 C 2.40625 -1.019531 2.453125 -1.113281 2.453125 -1.21875 C 2.453125 -1.332031 2.398438 -1.421875 2.296875 -1.484375 C 2.191406 -1.546875 2.015625 -1.617188 1.765625 -1.703125 L 1.625 -1.734375 C 1.363281 -1.828125 1.132812 -1.921875 0.9375 -2.015625 C 0.738281 -2.117188 0.566406 -2.257812 0.421875 -2.4375 C 0.285156 -2.613281 0.21875 -2.835938 0.21875 -3.109375 C 0.21875 -3.359375 0.285156 -3.578125 0.421875 -3.765625 C 0.554688 -3.960938 0.738281 -4.113281 0.96875 -4.21875 C 1.207031 -4.320312 1.476562 -4.375 1.78125 -4.375 C 2.09375 -4.375 2.375 -4.316406 2.625 -4.203125 C 2.882812 -4.085938 3.082031 -3.921875 3.21875 -3.703125 C 3.363281 -3.492188 3.4375 -3.253906 3.4375 -2.984375 L 3.4375 -2.9375 C 3.4375 -2.90625 3.425781 -2.878906 3.40625 -2.859375 C 3.382812 -2.835938 3.359375 -2.828125 3.328125 -2.828125 L 2.546875 -2.828125 C 2.515625 -2.828125 2.488281 -2.832031 2.46875 -2.84375 C 2.445312 -2.851562 2.4375 -2.867188 2.4375 -2.890625 L 2.4375 -2.9375 C 2.4375 -3.082031 2.375 -3.210938 2.25 -3.328125 C 2.125 -3.441406 1.953125 -3.5 1.734375 -3.5 C 1.578125 -3.5 1.453125 -3.460938 1.359375 -3.390625 C 1.265625 -3.328125 1.21875 -3.234375 1.21875 -3.109375 C 1.21875 -3.023438 1.242188 -2.953125 1.296875 -2.890625 C 1.359375 -2.828125 1.453125 -2.769531 1.578125 -2.71875 C 1.703125 -2.664062 1.890625 -2.601562 2.140625 -2.53125 C 2.421875 -2.425781 2.640625 -2.335938 2.796875 -2.265625 C 2.960938 -2.191406 3.113281 -2.070312 3.25 -1.90625 C 3.394531 -1.738281 3.46875 -1.519531 3.46875 -1.25 C 3.46875 -0.988281 3.398438 -0.757812 3.265625 -0.5625 C 3.128906 -0.363281 2.9375 -0.210938 2.6875 -0.109375 C 2.445312 -0.00390625 2.164062 0.046875 1.84375 0.046875 Z M 1.84375 0.046875 "/></g></g></g><g fill="#545454" fill-opacity="1"><g transform="translate(131.968705, 38.848901)"><g><path d="M 1.90625 0.0625 C 1.570312 0.0625 1.28125 0 1.03125 -0.125 C 0.78125 -0.257812 0.582031 -0.445312 0.4375 -0.6875 C 0.300781 -0.9375 0.234375 -1.222656 0.234375 -1.546875 L 0.234375 -2.78125 C 0.234375 -3.09375 0.300781 -3.367188 0.4375 -3.609375 C 0.582031 -3.847656 0.78125 -4.035156 1.03125 -4.171875 C 1.28125 -4.304688 1.570312 -4.375 1.90625 -4.375 C 2.238281 -4.375 2.53125 -4.304688 2.78125 -4.171875 C 3.039062 -4.035156 3.238281 -3.847656 3.375 -3.609375 C 3.519531 -3.367188 3.59375 -3.09375 3.59375 -2.78125 L 3.59375 -1.546875 C 3.59375 -1.222656 3.519531 -0.9375 3.375 -0.6875 C 3.238281 -0.445312 3.039062 -0.257812 2.78125 -0.125 C 2.53125 0 2.238281 0.0625 1.90625 0.0625 Z M 1.90625 -0.8125 C 2.101562 -0.8125 2.265625 -0.875 2.390625 -1 C 2.515625 -1.125 2.578125 -1.296875 2.578125 -1.515625 L 2.578125 -2.796875 C 2.578125 -3.003906 2.515625 -3.171875 2.390625 -3.296875 C 2.265625 -3.429688 2.101562 -3.5 1.90625 -3.5 C 1.71875 -3.5 1.5625 -3.429688 1.4375 -3.296875 C 1.320312 -3.171875 1.265625 -3.003906 1.265625 -2.796875 L 1.265625 -1.515625 C 1.265625 -1.296875 1.320312 -1.125 1.4375 -1 C 1.5625 -0.875 1.71875 -0.8125 1.90625 -0.8125 Z M 1.90625 -0.8125 "/></g></g></g><g fill="#545454" fill-opacity="1"><g transform="translate(138.057553, 38.848901)"><g><path d="M 2.640625 0 C 2.585938 0 2.546875 -0.03125 2.515625 -0.09375 L 1.796875 -1.6875 C 1.796875 -1.707031 1.78125 -1.71875 1.75 -1.71875 L 1.375 -1.71875 C 1.34375 -1.71875 1.328125 -1.703125 1.328125 -1.671875 L 1.328125 -0.109375 C 1.328125 -0.078125 1.316406 -0.0507812 1.296875 -0.03125 C 1.273438 -0.0078125 1.25 0 1.21875 0 L 0.40625 0 C 0.375 0 0.347656 -0.0078125 0.328125 -0.03125 C 0.304688 -0.0507812 0.296875 -0.078125 0.296875 -0.109375 L 0.296875 -4.203125 C 0.296875 -4.242188 0.304688 -4.273438 0.328125 -4.296875 C 0.347656 -4.316406 0.375 -4.328125 0.40625 -4.328125 L 2.203125 -4.328125 C 2.472656 -4.328125 2.710938 -4.269531 2.921875 -4.15625 C 3.128906 -4.039062 3.289062 -3.878906 3.40625 -3.671875 C 3.519531 -3.472656 3.578125 -3.242188 3.578125 -2.984375 C 3.578125 -2.710938 3.507812 -2.472656 3.375 -2.265625 C 3.238281 -2.066406 3.050781 -1.921875 2.8125 -1.828125 C 2.78125 -1.816406 2.773438 -1.796875 2.796875 -1.765625 L 3.578125 -0.125 L 3.59375 -0.078125 C 3.59375 -0.0234375 3.5625 0 3.5 0 Z M 1.375 -3.4375 C 1.34375 -3.4375 1.328125 -3.425781 1.328125 -3.40625 L 1.328125 -2.546875 C 1.328125 -2.515625 1.34375 -2.5 1.375 -2.5 L 2.046875 -2.5 C 2.191406 -2.5 2.3125 -2.539062 2.40625 -2.625 C 2.507812 -2.71875 2.5625 -2.832031 2.5625 -2.96875 C 2.5625 -3.113281 2.507812 -3.226562 2.40625 -3.3125 C 2.3125 -3.394531 2.191406 -3.4375 2.046875 -3.4375 Z M 1.375 -3.4375 "/></g></g></g><g fill="#545454" fill-opacity="1"><g transform="translate(144.103192, 38.848901)"><g><path d="M 3.390625 -4.328125 C 3.421875 -4.328125 3.445312 -4.316406 3.46875 -4.296875 C 3.488281 -4.273438 3.5 -4.242188 3.5 -4.203125 L 3.5 -3.546875 C 3.5 -3.515625 3.488281 -3.488281 3.46875 -3.46875 C 3.445312 -3.445312 3.421875 -3.4375 3.390625 -3.4375 L 2.359375 -3.4375 C 2.328125 -3.4375 2.3125 -3.421875 2.3125 -3.390625 L 2.3125 -0.109375 C 2.3125 -0.078125 2.300781 -0.0507812 2.28125 -0.03125 C 2.257812 -0.0078125 2.234375 0 2.203125 0 L 1.40625 0 C 1.375 0 1.347656 -0.0078125 1.328125 -0.03125 C 1.304688 -0.0507812 1.296875 -0.078125 1.296875 -0.109375 L 1.296875 -3.390625 C 1.296875 -3.421875 1.28125 -3.4375 1.25 -3.4375 L 0.25 -3.4375 C 0.21875 -3.4375 0.191406 -3.445312 0.171875 -3.46875 C 0.148438 -3.488281 0.140625 -3.515625 0.140625 -3.546875 L 0.140625 -4.203125 C 0.140625 -4.242188 0.148438 -4.273438 0.171875 -4.296875 C 0.191406 -4.316406 0.21875 -4.328125 0.25 -4.328125 Z M 3.390625 -4.328125 "/></g></g></g></svg>